<svg width="60" height="67" viewBox="0 0 60 67" fill="none" xmlns="http://www.w3.org/2000/svg">
<path fill-rule="evenodd" clip-rule="evenodd" d="M0 39.4508V51.8047C0 52.6592 0.0754898 53.4959 0.220164 54.3088C0.232302 54.377 0.180373 54.4401 0.111104 54.4405C0.0497454 54.4409 0.00029553 54.4916 0.00127996 54.5529C0.104432 60.9816 5.36965 66.139 11.8129 66.0948L28.9886 65.977C29.7163 65.972 30.0599 65.0768 29.5224 64.5862L18.5029 54.5273C18.3541 54.3914 18.1595 54.3168 17.9581 54.3181L15.0008 54.3384C14.5568 54.3415 14.1953 53.9824 14.1953 53.5384L14.1953 51L14.1953 50.9481C14.1953 50.7233 14.1007 50.5088 13.9346 50.3572L1.33934 38.86C0.825827 38.3912 0 38.7555 0 39.4508ZM21.0076 47.349C20.8416 47.1974 20.747 46.9829 20.747 46.7581V39.7661C20.747 39.0708 21.5728 38.7064 22.0863 39.1752L30.9184 47.2382C31.1544 47.4537 31.2436 47.7908 31.115 48.0834C30.5096 49.4598 29.4446 50.5883 28.1142 51.2746C27.6139 51.6012 27.0442 51.8304 26.4321 51.9354C26.2105 51.9734 25.9877 51.8949 25.8216 51.7433L21.0076 47.349ZM20.747 28.4631C20.747 28.6213 20.8135 28.7722 20.9303 28.8789L32.386 39.337C32.4417 39.3878 32.5147 39.4155 32.5901 39.4144L32.5907 39.4144H32.5908H32.591H32.5912H32.5915H32.5917H32.592H32.5923C34.3988 39.3872 36.4459 39.3565 38.7643 39.3565C56.2356 39.3565 58.9653 30.5 59.39 18.6565C58.9856 6.95654 49.3439 0.2065 38.7877 0.2065C37.3891 0.176572 36.0924 0.138685 34.8902 0.103557C34.5481 0.0935593 34.2135 0.083785 33.8865 0.0744815C33.8663 0.0739083 33.8503 0.0574103 33.8503 0.0372538C33.8503 0.0166859 33.8336 1.23031e-05 33.8131 1.21863e-05L31.6664 0H29.8949H29.8942H18.5631L5.85001 1.23978e-05C2.61914 1.23978e-05 5.72205e-06 2.61915 5.72205e-06 5.85001C5.72205e-06 9.08088 2.61914 11.7 5.85001 11.7H18.563L18.5631 11.7001L18.5632 11.7002H38.7733C43.2468 11.7002 46.8733 15.3267 46.8733 19.8002C46.8733 24.2737 43.2468 27.9002 38.7733 27.9002H21.3099C20.999 27.9002 20.747 28.1523 20.747 28.4631ZM14.1953 32.3242C14.1953 32.0994 14.1007 31.885 13.9347 31.7334L2.80714 21.5748C2.40682 21.2093 1.76676 21.3407 1.59643 21.8553C1.43724 22.3362 1.31356 22.8333 1.22851 23.3435C1.21698 23.4127 1.19717 23.4803 1.16922 23.5446C0.590968 24.8758 0.210791 26.3129 0.0658868 27.8188C0.0425074 28.0617 0.139163 28.2997 0.319435 28.4643L12.8559 39.9079C13.3695 40.3767 14.1953 40.0124 14.1953 39.3171L14.1953 32.3242ZM41.0905 65.6812C41.2393 65.817 41.4339 65.8917 41.6354 65.8903L49.2351 65.8382C49.9628 65.8332 50.3064 64.938 49.7689 64.4474L38.7506 54.3884C38.6018 54.2526 38.4072 54.1779 38.2057 54.1793L30.6048 54.2314C29.8771 54.2364 29.5335 55.1316 30.071 55.6222L41.0905 65.6812ZM16.9918 25C16.7922 25 16.5998 24.9254 16.4524 24.7908L7.66767 16.771C7.24839 16.3883 7.35259 15.7051 7.89047 15.5235C8.89559 15.184 9.97228 15 11.0919 15H14.1953H22.7584C28.012 15 32.3193 19.0513 32.7268 24.2001C32.7617 24.6406 32.4002 25 31.9584 25H16.9918Z" fill="url(#paint0_linear_14_7)"/>
<defs>
<linearGradient id="paint0_linear_14_7" x1="0" y1="33.0913" x2="59.39" y2="33.0913" gradientUnits="userSpaceOnUse">
<stop offset="0.134" stop-color="#14181E"/>
<stop offset="0.539" stop-color="#27292B"/>
<stop offset="0.97" stop-color="#212224"/>
</linearGradient>
</defs>
</svg>
